<svg height="21" viewBox="0 0 75 21" width="75" xmlns="http://www.w3.org/2000/svg"><g fill="#e2e3e4" fill-rule="evenodd"><path d="m26.8551429 4.92905357c-4.02 0-5.8521429 2.64642857-5.8521429 5.09571433 0 1.4239285.5148214 2.7257142 1.4367857 3.5839285 1.0141072.9508929 2.3673214 1.4207143 4.1276786 1.4207143 1.5283928 0 2.7728571-.3798214 3.3873214-.6042857l.1510714-.045v-4.65803571h-1.6939285v3.61392861c-.2416072.0910714-.7714286.2271428-1.7383929.2271428-2.3758928 0-3.9016071-1.41375-3.9016071-3.59892856 0-2.16964285 1.5803571-3.56785714 4.0376785-3.56785714.9235715 0 1.6360715.14303571 2.3282143.45321429l.2271429.09107142.45375-1.42178571-.1660714-.07553571c-.5025-.23571429-1.5380358-.51428572-2.7975-.51428572zm38.90625.01553572v1.42125l3.2357142.015c1.4823215 0 2.5917858.36535714 3.29625 1.07357142.5705358.57214286.8555358 1.36714286.8469643 2.34375 0 1.08749999-.3375 2.00249999-.9830357 2.64642859-.7510714.7542857-1.9333928 1.1405357-3.4023214 1.1341071-.4446429 0-.9428572-.0080357-1.3001786-.045v-4.47642854h-1.6933928v5.83714284l.1966071.0144643c.7408929.075 1.5471429.1205357 2.5708929.1205357 2.0978571 0 3.8282142-.5485714 4.8680357-1.54125.9744643-.9567857 1.5123214-2.2816071 1.5123214-3.7355357 0-1.395-.4869643-2.54678571-1.4367857-3.41678571-.9782143-.92035715-2.4969643-1.39125-4.5203572-1.39125zm-32.6919643 9.97928571h1.7083928v-9.90428571h-1.7083928zm13.3216071-9.90375v9.90375h6.2753572v-1.4667857h-4.5664286v-2.9485714h4.0976786v-1.46625004h-4.0976786v-2.54035715h4.3398214v-1.48178571zm11.9153572 0-3.7344643 9.90375h1.7239285l1.0880358-3.0235714h3.4783928l1.1491072 3.0235714h1.7539285l-3.7805357-9.90375zm-20.2773215.015v9.88875h6.2148215v-1.4967857h-4.5058929v-8.3919643zm21.0792857 1.93553571c.0969643.30053572 1.03875 2.80178572 1.3157143 3.52285719h-2.6014285s1.1930357-3.22232147 1.2857142-3.52285719z"/><path d="m15.348.00010714c-12.8025 1.21821429-14.4225 10.04785716-10.23696429 12.86732146-.72321428 3.1875-.06053571 3.1151785-.06053571 3.1151785.13178571-.9525.31553571-1.9007142.55928571-2.8275 1.63392858-6.21267853 5.67642859-11.61749996 9.75321429-13.03446424v-.015c.02625-.00214286.0605357-.01607143.0605357-.045 0-.03910715-.0305357-.06053572-.0605357-.06053572zm-.6653571 2.02607143c-.0225 0-.04875.02196429-.0605358.04553572-1.0585714 2.07375-1.3580357 5.04214285-2.1626785 7.31839285-.9246429 2.59660716-2.56553574 4.35803576-5.0951786 4.18821426v6.3208929s-6.75964286-3.0685714-6.75964286-7.9842857v-9.20839289l5.52-.51428571h.015c.02946429 0 .04553572-.01392857.04553572-.04553571 0-.03589286-.01660715-.05732143-.04553572-.06h-6.13928571v9.82821431c0 5.5280357 7.36392857 8.6041071 7.36392857 8.6041071s7.3789286-3.1242857 7.3789286-8.6041071v-9.82821431c0-.02625-.0310715-.06053572-.0605357-.06053572z"/></g></svg>