<svg height="30" viewBox="0 0 35 30" width="35" xmlns="http://www.w3.org/2000/svg" xmlns:xlink="http://www.w3.org/1999/xlink"><mask id="a" fill="#fff"><path d="m0 .07339286h34.1735893v29.39089284h-34.1735893z" fill="#fff" fill-rule="evenodd"/></mask><g fill="#e2e3e4" fill-rule="evenodd"><path d="m27.9534107 18.4054286c-.9375 0-1.725-.5196429-2.6892857-1.6607143-1.5428571-1.8476786-2.7803571-3.3316072-2.7803571-3.3316072v2.4208929c0 1.6928571.0910714 1.9660714.2405357 2.3576786h-2.23875c.1821428-.4826786.2732143-.6648215.2732143-2.3576786v-.0316071-8.34107147c0-1.36071429-.0910715-1.96607143-.3642858-2.33035714l2.0892858-.54107143v8.09946424l2.7482142-2.5660714s.5464286-.48696427 1.0285715-1.11910713h2.3892857c-.1232143.03214286-.5464286.11785714-2.0571429 1.53750003l-2.5719643 2.4214285s1.6826786 2.0410715 3.1344643 3.6428572c1.1196429 1.2101786 1.8267857 1.3441071 2.3410715 1.3441071.0910714 0 .2094642-.0321428.3-.0642857-.45.3380357-1.1142858.5196429-1.8428572.5196429m-11.9464286.1183928c-1.0607142 0-1.9982142-.2094643-2.9625-.6053571v-1.3880357c.9964286.5410714 2.2339286.8732143 3.0208929.8732143.8464286 0 1.9023214-.2089286 1.9023214-1.2053572 0-.9958928-1.0558928-1.4839286-2.2071428-2.0244643-1.2696429-.6058928-2.6303572-1.2701785-2.6303572-2.8125 0-.3541071.0642857-.6648214.1767857-.9433928.4982143-1.2101786 1.9446429-1.74589289 3.2732143-1.74589289.8732143 0 1.7517857.20839286 2.5071429.63160715v1.36071424c-.7285714-.5732142-1.6017857-.9053571-2.5392857-.9053571-.9107143 0-1.7839286.3648214-1.7839286 1.1791071 0 .96375 1.1517857 1.5101786 2.3571429 2.1155358 1.2696428.6375 2.6030357 1.3607142 2.6030357 2.74875 0 2.0244642-2.0244643 2.7214285-3.7173215 2.7214285m-4.0130357 2.3833929c-1.52625 1.9071428-6.43339283 2.1058928-7.82624997.2678571-.02732143-.0369643-.05357143-.075-.08035714-.1125-.7875-1.1994643.45-2.2226785 1.76785714-2.8017857-.9375-.2517857-1.41964286-.9589286-1.41964286-1.6392857 0-.6964286.48214286-1.3017857 1.39285714-1.7244643-1.21071428-.4558928-2.04696428-1.6017857-2.04696428-2.8928571 0-1.8808929 1.46303571-3.3326786 3.83089286-3.3326786.51482142 0 1.11964285.11839286 1.62857142.26785714.42857143.12321429.87803569.21428572 1.36071429.21428572.5785714 0 1.2428571-.03160715 1.7839286-.18214286v1.21125c-.3005357-.0594643-1.2696429-.1232143-1.7839286-.1232143.4880357.5458929.7607143 1.30125.7607143 2.0303572 0 1.6923214-1.3339286 3.1125-3.69107144 3.1125-.20357143 0-.42321429-.01125-.67553572-.0433929-.24642857.0482143-.47089285.1553571-.64232143.3-.25714285.2035714-.375.4714286-.375.7071429 0 .3910714.19232143.6803571 1.17857143.7553571 2.11071429.1660714 3.40714286.19875 4.27499996.5946429.2298215.1071428.45.2678571.6375.4767857.5839286.6648214.8303572 1.7785714-.0755357 2.9142857m19.2889286-18.62892859c-2.1058929-1.46357142-5.4289286-2.205-9.8764286-2.205-2.9180357 0-8.5194643.27-13.25196426 2.07910715-5.41125 2.06732143-8.15464285 5.51571428-8.15464285 10.24928574 0 1.5321428.31285714 3.1671428.89517857 4.8032143.35303571.9776785.79821428 1.9521428 1.32160714 2.89875.17732143.3219642.36482143.6401785.55928571.9546428.57589286.9182143 1.23107143 1.8096429 1.95910715 2.6528572 3.15214285 3.65625 7.12017854 5.7535714 10.88464284 5.7535714 2.4492857 0 4.7544643-.8191072 7.0451786-2.50125 2.6501786-1.9714286 5.5130357-5.0930357 7.6596428-8.3539286 3.1816072-4.8353571 3.8491072-8.3491071 3.8491072-10.44535713 0-2.57303571-.9723214-4.55357143-2.8907143-5.88589286" mask="url(#a)" transform="translate(0 .462321)"/><path d="m8.64075 18.9749464c-.95357143-.0375-1.40839286-.0964285-1.99821429-.1446428-2.57142857 1.4142857-.40178571 3.2571428 2.37375 2.9571428 1.78928569-.1875 2.44232139-1.0232143 2.22267859-1.8-.1494643-.5142857-.7392857-.9375-2.5982143-1.0125"/><path d="m7.72521429 14.6950179c1.30125 0 1.97089285-.8844643 1.97089285-2.1267858 0-1.3553571-.77678571-2.4380357-2.22857143-2.4380357-1.26964285 0-2.03571428.8416072-2.03571428 2.0839286 0 1.3933929.80892857 2.4808929 2.29339286 2.4808929"/></g></svg>