<svg fill="none" height="27" viewBox="0 0 224 27" width="224" xmlns="http://www.w3.org/2000/svg" xmlns:xlink="http://www.w3.org/1999/xlink"><clipPath id="a"><path d="m0 0h223.4v26.7h-223.4z"/></clipPath><g clip-path="url(#a)" fill="#e2e3e4"><path d="m5.69968 1.09995h11.70002c4.4-.100158 7.3 1.7001 7.3 6.4001 0 3.29995-2.3 6.09995-5.6 6.59995v.1001c2 .6 2.5 2.4 2.5 4.3 0 1.1-.2 2.7001-.2 4.3001 0 1.1.1002 2.1.3001 2.8h-5.3c-.1001-.6-.1999-1.1-.1999-1.6 0-1.6.3001-3.3.3001-5 0-2.4-1.4-3-3.5-3h-5.1l-1.99998 9.6h-5.40002zm3.10004 11.10005h4.99998c2.8 0 5.6-1.1 5.6-3.90006 0-2.59997-1.9-2.99993-4-2.99993h-5.1z"/><path d="m45.1997 21.0999-1 4.5h-18.9l5.2-24.49999h18.7l-1 4.5h-13.3l-1.1 5.29999h12.3l-.9 4.2h-12.3l-1.2 6z"/><path d="m66.6997 23.1c-1.7 2.2-4 3.1-6.2 3.1-6.9 0-10.9-3.9-10.9-10.8 0-7.89998 5.1-14.800085 13.4-14.800085 5.7 0 10.4 2.700015 10.4 8.700015h-5.4c-.1001-3-2-4.19995-5-4.19995-5.5 0-8 5.60002-8 10.30002 0 3.4 1.6 6.3 5.6 6.3 4.1 0 5.9-2.2001 6.8-5.3001h-5.7l.9-3.9999h10.4l-2.8 13.2h-3.5z"/><path d="m94.0997 21.0999-.9 4.5h-18.9l5.1-24.49999h18.7l-.9 4.5h-13.3l-1.1 5.29999h12.3l-.9 4.2h-12.3l-1.3 6z"/><path d="m105.7 8.39991-3.5 17.19999h-5.1003l5.2003-24.49999h5.6l6.6 17.39999h.1l3.5-17.39999h5l-5.2 24.49999h-5.4l-6.7-17.19999z"/><path d="m142.5 21.0999-1 4.5h-18.9l5.1-24.49999h18.7l-.9 4.5h-13.3l-1.1 5.29999h12.3l-.9 4.2h-12.3l-1.3 6z"/><path d="m150.6 1.09995h11.7c4.4-.100158 7.3 1.7001 7.3 6.4001 0 3.29995-2.3 6.09995-5.6 6.59995v.1001c2 .6 2.5 2.4 2.5 4.3 0 1.1-.2 2.7001-.2 4.3001 0 1.1.1 2.1.3 2.8h-5.3c-.1-.6-.2-1.1-.2-1.6 0-1.6.3-3.3.3-5 0-2.4-1.4-3-3.5-3h-5.1l-2 9.6h-5.4zm3.1 11.10005h5c2.9 0 5.6-1.1 5.6-3.90006 0-2.59997-1.9-2.99993-4-2.99993h-5.1z"/><path d="m185.1.499878c6.6 0 10.9 3.600032 10.9 10.500022 0 8.1-4.8 15.2-13.4 15.2-6.9 0-10.9-3.8999-10.9-10.7999 0-8.00002 5.1-14.900122 13.4-14.900122zm-2.5 21.200122c5.3 0 7.9-5.6001 7.9-10.3001 0-3.39996-1.5-6.39995-5.5-6.39995-5.5 0-8 5.60005-8 10.30005.1 3.4 1.7 6.4 5.6 6.4z"/><path d="m202 25.5999h-5l5.1-24.49999h5.6l6.7 17.39999 3.5-17.39999h5l-5.2 24.49999h-5.4l-6.7-17.19999h-.1z"/></g></svg>